<?xml version="1.0" standalone="no"?><!DOCTYPE svg PUBLIC "-//W3C//DTD SVG 1.1//EN" "http://www.w3.org/Graphics/SVG/1.1/DTD/svg11.dtd"><svg t="1553073876536" class="icon" style="" viewBox="0 0 1024 1024" version="1.1" xmlns="http://www.w3.org/2000/svg" p-id="2992" xmlns:xlink="http://www.w3.org/1999/xlink" width="16" height="16"><defs><style type="text/css"></style></defs><path d="M607.491353 513.260713 936.024831 184.392614c26.41665-26.41665 26.41665-69.27783 0-95.777367-26.41358-26.41665-69.194942-26.41665-95.608521 0L511.796874 417.565211 182.762999 88.115873c-26.086122-26.000164-68.200288-26.000164-94.200452 0-26.083052 26.000164-26.083052 68.283176 0 94.28334l329.11574 329.367473-328.203974 328.45059c-26.41358 26.499537-26.41358 69.360717 0 95.77839 26.41665 26.415626 69.281923 26.415626 95.694479 0l328.120063-328.451614 325.545424 325.874929c26.082028 26.000164 68.200288 26.000164 94.200452 0 26.000164-26.082028 26.000164-68.279083 0-94.28334L607.491353 513.260713z" p-id="2993"></path></svg>